<svg width="26" height="25" viewBox="0 0 26 25" fill="none" xmlns="http://www.w3.org/2000/svg">
<path d="M22.5784 11.4184L24.7891 12.1372C24.9416 12.1862 25.0995 12.1045 25.1485 11.952L25.2792 11.5491C25.3282 11.3966 25.2465 11.2387 25.094 11.1897L22.8834 10.471C22.8235 10.4546 22.7745 10.4165 22.7418 10.3675L21.8433 9.1315C21.729 8.9736 21.7998 8.75035 21.9849 8.69045L23.4115 8.22762C23.564 8.17862 23.6457 8.01527 23.5967 7.86825L23.466 7.46532C23.417 7.31286 23.2536 7.23118 23.1066 7.28019L20.8959 7.99893C20.836 8.01527 20.7761 8.01527 20.7217 7.99893L19.2678 7.52522C19.0827 7.46532 19.0119 7.24207 19.1263 7.08417L20.0247 5.84814C20.0628 5.79914 20.1118 5.76102 20.1663 5.74469L22.377 5.02594C22.5294 4.97694 22.6111 4.81359 22.5621 4.66657L22.4314 4.26364C22.3824 4.11118 22.2191 4.0295 22.072 4.07851L19.8614 4.79725C19.8015 4.81359 19.7416 4.81359 19.6871 4.79725L18.2333 4.32353C18.0482 4.26364 17.9774 4.04039 18.0917 3.88249L18.9738 2.66824C19.0664 2.54301 19.0392 2.36332 18.9085 2.27076L18.5654 2.02573C18.4402 1.93316 18.2605 1.96039 18.1679 2.09107L16.8012 3.96961C16.7631 4.01861 16.7141 4.05673 16.6597 4.07306L15.2059 4.54678C15.0207 4.60668 14.8301 4.47055 14.8301 4.27453V2.74447C14.8301 2.68458 14.8519 2.62468 14.8846 2.57568L16.2513 0.697142C16.3439 0.571906 16.3166 0.39222 16.186 0.299654L15.8429 0.0546274C15.7177 -0.0379382 15.538 -0.010713 15.4454 0.119968L14.0787 1.9985C14.0406 2.04751 13.9916 2.08563 13.9372 2.10196L12.4833 2.57568C12.2982 2.63557 12.1076 2.49945 12.1076 2.30343V0.795152C12.1076 0.637246 11.9769 0.506565 11.819 0.506565H11.3998C11.2419 0.506565 11.1112 0.637246 11.1112 0.795152V3.11474C11.1112 3.17463 11.0894 3.23453 11.0567 3.28353L10.1583 4.51956C10.044 4.67746 9.80982 4.67746 9.69548 4.51956L8.79705 3.28353C8.75893 3.23453 8.7426 3.17463 8.7426 3.11474V0.795152C8.7426 0.637246 8.61191 0.506565 8.45401 0.506565H8.03474C7.87683 0.506565 7.74615 0.637246 7.74615 0.795152V3.11474C7.74615 3.17463 7.72437 3.23453 7.6917 3.28353L6.79327 4.51956C6.67893 4.67746 6.44479 4.67746 6.33045 4.51956L5.44835 3.30531C5.35578 3.18008 5.1761 3.14741 5.05086 3.23997L4.70783 3.49044C4.58259 3.58301 4.54992 3.7627 4.64248 3.88793L6.00919 5.76647C6.0473 5.81547 6.06364 5.87537 6.06364 5.93527V7.46532C6.06364 7.66134 5.87306 7.79747 5.68793 7.73757L4.23411 7.26385C4.17421 7.24752 4.12521 7.2094 4.09254 7.1604L2.72583 5.28186C2.63327 5.15663 2.45358 5.12396 2.32835 5.21652L1.98531 5.46699C1.86007 5.55956 1.8274 5.73924 1.91997 5.86448L3.28667 7.74302C3.32479 7.79202 3.34112 7.85192 3.34112 7.91181V9.44187C3.34112 9.63789 3.15055 9.77402 2.96541 9.71412L1.53882 9.25129C1.38635 9.20229 1.22845 9.28396 1.17944 9.43642L1.04876 9.83936C0.999757 9.99182 1.08143 10.1497 1.23389 10.1987L3.44458 10.9175C3.50447 10.9338 3.55348 10.9719 3.58615 11.0209L4.48458 12.257C4.59892 12.4149 4.52814 12.6381 4.34301 12.698L2.88918 13.1717C2.82929 13.1881 2.76939 13.1881 2.71494 13.1717L0.504259 12.453C0.351798 12.404 0.193892 12.4856 0.144886 12.6381L0.0142054 13.041C-0.0347999 13.1935 0.0468756 13.3514 0.199337 13.4004L2.41002 14.1192C2.46992 14.1355 2.51892 14.1736 2.55159 14.2226L3.45002 15.4586C3.56437 15.6165 3.49358 15.8398 3.30845 15.8997L1.88185 16.3625C1.72939 16.4115 1.64772 16.5749 1.69672 16.7219L1.8274 17.1248C1.87641 17.2773 2.03976 17.3589 2.18677 17.3099L4.39746 16.5912C4.45735 16.5749 4.51725 16.5749 4.5717 16.5912L6.02552 17.0649C6.21065 17.1248 6.28144 17.3481 6.16709 17.506L5.26866 18.742C5.23055 18.791 5.18154 18.8291 5.12709 18.8454L2.91641 19.5642C2.76395 19.6132 2.68227 19.7765 2.73128 19.9236L2.86196 20.3265C2.91096 20.479 3.07432 20.5606 3.22133 20.5116L5.42657 19.7929C5.48646 19.7765 5.54636 19.7765 5.60081 19.7929L7.05463 20.2666C7.23977 20.3265 7.31055 20.5497 7.19621 20.7076L6.31411 21.9219C6.22154 22.0471 6.24877 22.2268 6.37945 22.3194L6.72249 22.5698C6.84772 22.6624 7.02741 22.6352 7.11998 22.5045L8.48668 20.626C8.52479 20.577 8.5738 20.5389 8.62825 20.5225L10.0821 20.0488C10.2672 19.9889 10.4578 20.125 10.4578 20.321V21.8511C10.4578 21.911 10.436 21.9709 10.4033 22.0199L9.03663 23.8984C8.94406 24.0237 8.97129 24.2034 9.10197 24.2959L9.44501 24.541C9.57024 24.6335 9.74993 24.6063 9.84249 24.4756L11.2092 22.5971C11.2473 22.5481 11.2963 22.51 11.3508 22.4936L12.8046 22.0199C12.9897 21.96 13.1803 22.0961 13.1803 22.2922V23.7895C13.1803 23.9474 13.311 24.0781 13.4689 24.0781H13.8882C14.0461 24.0781 14.1767 23.9474 14.1767 23.7895V21.4699C14.1767 21.4101 14.1985 21.3502 14.2312 21.3012L15.1296 20.0651C15.244 19.9072 15.4781 19.9072 15.5924 20.0651L16.4909 21.3012C16.529 21.3502 16.5453 21.4101 16.5453 21.4699V23.7895C16.5453 23.9474 16.676 24.0781 16.8339 24.0781H17.2532C17.4111 24.0781 17.5418 23.9474 17.5418 23.7895V21.4699C17.5418 21.4101 17.5581 21.3502 17.5962 21.3012L18.4947 20.0651C18.609 19.9072 18.8431 19.9072 18.9575 20.0651L19.8396 21.2794C19.9321 21.4046 20.1118 21.4373 20.2371 21.3447L20.5801 21.0997C20.7053 21.0071 20.738 20.8274 20.6454 20.7022L19.2787 18.8237C19.2406 18.7747 19.2243 18.7148 19.2243 18.6549V17.1248C19.2243 16.9288 19.4149 16.7927 19.6 16.8526L21.0538 17.3263C21.1137 17.3426 21.1627 17.3807 21.1954 17.4297L22.5621 19.3083C22.6547 19.439 22.8343 19.4662 22.9596 19.3736L23.3026 19.1286C23.4279 19.036 23.4605 18.8563 23.368 18.7311L22.0013 16.8526C21.9631 16.8036 21.9468 16.7437 21.9468 16.6838V15.1537C21.9468 14.9577 22.1374 14.8216 22.3225 14.8815L23.7491 15.3443C23.9016 15.3933 24.0595 15.3116 24.1085 15.1592L24.2392 14.7562C24.2882 14.6038 24.2065 14.4459 24.054 14.3969L21.8433 13.6781C21.7835 13.6618 21.7344 13.6237 21.7018 13.5746L20.8033 12.3386C20.689 12.1807 20.7598 11.9575 20.9449 11.8976L22.3987 11.4239C22.4586 11.4075 22.5185 11.4075 22.573 11.4239L22.5784 11.4184ZM15.8593 18.6549V16.3026C15.8593 16.2427 15.881 16.1828 15.9137 16.1338L16.8121 14.8978C16.9265 14.7399 17.1606 14.7399 17.275 14.8978L18.1734 16.1338C18.2115 16.1828 18.2278 16.2427 18.2278 16.3026V18.6549C18.2278 18.7148 18.2061 18.7747 18.1734 18.8237L17.275 20.0597C17.1606 20.2176 16.9265 20.2176 16.8121 20.0597L15.9137 18.8237C15.8756 18.7747 15.8593 18.7148 15.8593 18.6549ZM10.1692 15.5458L8.78616 13.64C8.74804 13.591 8.73171 13.5311 8.73171 13.4712V11.1189C8.73171 11.059 8.75349 10.9991 8.78616 10.9501L10.1692 9.04438C10.2073 8.99538 10.2563 8.95726 10.3108 8.94093L12.5487 8.21129C12.6086 8.19495 12.6685 8.19495 12.7229 8.21129L14.9608 8.94093C15.0207 8.95726 15.0697 8.99538 15.1024 9.04438L16.4854 10.9501C16.5236 10.9991 16.5399 11.059 16.5399 11.1189V13.4712C16.5399 13.5311 16.5181 13.591 16.4854 13.64L15.1024 15.5458C15.0643 15.5948 15.0153 15.6329 14.9608 15.6492L12.7229 16.3788C12.663 16.3952 12.6031 16.3952 12.5487 16.3788L10.3108 15.6492C10.2509 15.6329 10.2019 15.5948 10.1692 15.5458ZM7.10364 16.3788L4.86573 15.6492C4.80584 15.6329 4.75683 15.5948 4.72416 15.5458L3.82573 14.3097C3.71138 14.1518 3.78217 13.9286 3.9673 13.8687L5.42112 13.395C5.48102 13.3786 5.54092 13.3786 5.59537 13.395L7.83327 14.1246C7.89317 14.1409 7.94218 14.179 7.97485 14.2281L8.87328 15.4641C8.98762 15.622 8.91684 15.8452 8.73171 15.9051L7.27788 16.3788C7.21799 16.3952 7.15809 16.3952 7.10364 16.3788ZM4.32667 10.275V8.7449C4.32667 8.54888 4.51725 8.41276 4.70238 8.47265L6.1562 8.94637C6.2161 8.96271 6.2651 9.00082 6.29778 9.04983L7.68081 10.9556C7.71893 11.0046 7.73526 11.0645 7.73526 11.1244V12.6544C7.73526 12.8505 7.54469 12.9866 7.35956 12.9267L5.90573 12.453C5.84584 12.4366 5.79683 12.3985 5.76416 12.3495L4.38112 10.4438C4.34301 10.3947 4.32667 10.3349 4.32667 10.275ZM9.41778 5.94616V8.29841C9.41778 8.35831 9.396 8.4182 9.36333 8.46721L8.4649 9.70323C8.35055 9.86114 8.11642 9.86114 8.00207 9.70323L7.10364 8.46721C7.06552 8.4182 7.04919 8.35831 7.04919 8.29841V5.94616C7.04919 5.88626 7.07097 5.82636 7.10364 5.77736L8.00207 4.54134C8.11642 4.38343 8.35055 4.38343 8.4649 4.54134L9.36333 5.77736C9.40145 5.82636 9.41778 5.88626 9.41778 5.94616ZM11.5087 19.3301L12.8917 17.4243C12.9298 17.3753 12.9788 17.3372 13.0333 17.3208L14.4871 16.8471C14.6722 16.7872 14.8628 16.9233 14.8628 17.1194V18.6494C14.8628 18.7093 14.841 18.7692 14.8084 18.8182L13.4253 20.724C13.3872 20.773 13.3382 20.8111 13.2838 20.8274L11.8299 21.3012C11.6448 21.3611 11.4542 21.2249 11.4542 21.0289V19.4988C11.4542 19.439 11.476 19.3791 11.5087 19.3301ZM20.5747 16.1229L19.1208 15.6492C19.0609 15.6329 19.0119 15.5948 18.9793 15.5458L18.2877 14.5929L17.5962 13.6454C17.5581 13.5964 17.5418 13.5365 17.5418 13.4766V11.9466C17.5418 11.7506 17.7323 11.6144 17.9175 11.6743L19.3713 12.1481C19.4312 12.1644 19.4802 12.2025 19.5129 12.2515L20.8959 14.1573C20.934 14.2063 20.9504 14.2662 20.9504 14.3261V15.8561C20.9504 16.0521 20.7598 16.1883 20.5747 16.1284V16.1229ZM19.6762 11.2006L17.4383 10.471C17.3784 10.4546 17.3294 10.4165 17.2967 10.3675L16.3983 9.1315C16.284 8.9736 16.3548 8.75035 16.5399 8.69045L17.9937 8.21673C18.0536 8.2004 18.1135 8.2004 18.1679 8.21673L20.4059 8.94637C20.4658 8.96271 20.5148 9.00082 20.5474 9.04983L21.4459 10.2858C21.5602 10.4438 21.4894 10.667 21.3043 10.7269L19.8505 11.2006C19.7906 11.2169 19.7307 11.2169 19.6762 11.2006ZM17.6888 7.27474L15.4509 8.00438C15.391 8.02071 15.3311 8.02071 15.2766 8.00438L13.8228 7.53066C13.6377 7.47077 13.5669 7.24752 13.6812 7.08961L14.5797 5.85359C14.6178 5.80458 14.6668 5.76647 14.7212 5.75013L16.9592 5.0205C17.019 5.00416 17.0789 5.00416 17.1334 5.0205L18.5872 5.49422C18.7724 5.55411 18.8431 5.77736 18.7288 5.93527L17.8304 7.17129C17.7922 7.22029 17.7432 7.25841 17.6888 7.27474ZM13.7684 5.26553L12.3853 7.17129C12.3472 7.22029 12.2982 7.25841 12.2438 7.27474L10.7899 7.74846C10.6048 7.80836 10.4142 7.67223 10.4142 7.47621V5.94616C10.4142 5.88626 10.436 5.82636 10.4687 5.77736L11.8517 3.8716C11.8898 3.82259 11.9388 3.78448 11.9933 3.76814L13.4471 3.29442C13.6322 3.23453 13.8228 3.37065 13.8228 3.56667V5.09673C13.8228 5.15663 13.801 5.21652 13.7684 5.26553ZM7.58825 17.3263L9.82616 16.5966C9.88605 16.5803 9.94595 16.5803 10.0004 16.5966L11.4542 17.0704C11.6394 17.1303 11.7101 17.3535 11.5958 17.5114L10.6974 18.7474C10.6592 18.7964 10.6102 18.8346 10.5558 18.8509L8.31788 19.5805C8.25799 19.5969 8.19809 19.5969 8.14364 19.5805L6.68982 19.1068C6.50469 19.0469 6.4339 18.8237 6.54825 18.6658L7.44668 17.4297C7.48479 17.3807 7.5338 17.3426 7.58825 17.3263Z" fill="#00280F"/>
</svg>
